<?xml version="1.0" standalone="no"?>
<!DOCTYPE svg PUBLIC "-//W3C//DTD SVG 20010904//EN"
 "http://www.w3.org/TR/2001/REC-SVG-20010904/DTD/svg10.dtd">
<svg version="1.0" xmlns="http://www.w3.org/2000/svg"
 width="700.000000pt" height="700.000000pt" viewBox="0 0 700.000000 700.000000"
 preserveAspectRatio="xMidYMid meet">
<metadata>
Created by potrace 1.14, written by Peter Selinger 2001-2017
</metadata>
<g transform="translate(0.000000,700.000000) scale(0.100000,-0.100000)"
fill="#000000" stroke="none">
<path d="M3210 6920 c-529 -49 -1020 -208 -1467 -474 -792 -471 -1370 -1259
-1582 -2156 -68 -290 -86 -452 -85 -795 0 -310 10 -423 60 -672 199 -987 813
-1828 1698 -2323 890 -498 1986 -569 2936 -190 932 372 1660 1139 1980 2087
124 368 180 711 180 1101 0 215 -13 373 -45 569 -172 1027 -799 1917 -1711
2428 -382 215 -786 348 -1244 410 -136 19 -580 28 -720 15z m-1571 -2665 l383
-444 107 122 c58 68 232 268 385 445 l279 322 258 0 259 0 0 -1200 0 -1200
-300 0 -300 0 0 745 0 746 -317 -370 -318 -370 -51 0 -51 -1 -319 371 -319
370 -3 -745 -2 -746 -300 0 -300 0 0 1200 0 1200 263 -1 262 0 384 -444z
m2988 173 c131 -150 418 -479 638 -731 l400 -458 3 730 2 731 298 -2 297 -3 0
-1195 0 -1195 -250 -3 -251 -2 -659 765 -660 766 -3 -766 -2 -765 -300 0 -300
0 0 1200 0 1200 275 0 274 0 238 -272z"/>
</g>
</svg>
