<?xml version="1.0" encoding="utf-8"?>
<!-- Generator: Adobe Illustrator 28.0.0, SVG Export Plug-In . SVG Version: 6.00 Build 0)  -->
<svg version="1.1" id="Layer_1" xmlns="http://www.w3.org/2000/svg" xmlns:xlink="http://www.w3.org/1999/xlink" x="0px" y="0px"
	 viewBox="0 0 256 256" style="enable-background:new 0 0 256 256;" xml:space="preserve">
<style type="text/css">
	.st0{fill:url(#SVGID_1_);}
	.st1{fill:#0078D4;}
	.st2{fill:url(#SVGID_00000105392930690105009640000007382288751396506275_);}
	.st3{fill:url(#SVGID_00000076605057644973460060000010688153619678860691_);}
	.st4{fill:#F8BB16;}
	.st5{fill:#EA4334;}
	.st6{fill:#0074BC;}
	.st7{fill:#E2E3E4;}
</style>
<g>
	
		<linearGradient id="SVGID_1_" gradientUnits="userSpaceOnUse" x1="-1141.2958" y1="870.576" x2="-1168.3368" y2="950.4621" gradientTransform="matrix(1.5625 0 0 1.5625 1843.9375 -1350.6737)">
		<stop  offset="0" style="stop-color:#114A8B"/>
		<stop  offset="1" style="stop-color:#0669BC"/>
	</linearGradient>
	<path class="st0" d="M45.8,0h40.7L44.3,125.1c-0.9,2.6-3.4,4.4-6.1,4.4H6.5c-3.6,0-6.5-2.9-6.5-6.5c0-0.7,0.1-1.4,0.3-2.1L39.7,4.4
		C40.6,1.8,43.1,0,45.8,0L45.8,0z"/>
	<path class="st1" d="M105,83.9H40.4c-1.6,0-3,1.3-3,3c0,0.8,0.3,1.6,1,2.2l41.5,38.7c1.2,1.1,2.8,1.8,4.4,1.8h36.5L105,83.9z"/>
	
		<linearGradient id="SVGID_00000047749067083374046640000002499887231900554651_" gradientUnits="userSpaceOnUse" x1="-1132.8489" y1="907.804" x2="-1139.1039" y2="909.9189" gradientTransform="matrix(1.5625 0 0 1.5625 1843.9375 -1350.6737)">
		<stop  offset="0" style="stop-color:#000000;stop-opacity:0.3"/>
		<stop  offset="7.100000e-02" style="stop-color:#000000;stop-opacity:0.2"/>
		<stop  offset="0.321" style="stop-color:#000000;stop-opacity:0.1"/>
		<stop  offset="0.623" style="stop-color:#000000;stop-opacity:5.000000e-02"/>
		<stop  offset="1" style="stop-color:#000000;stop-opacity:0"/>
	</linearGradient>
	<path style="fill:url(#SVGID_00000047749067083374046640000002499887231900554651_);" d="M45.8,0c-2.8,0-5.3,1.8-6.2,4.5L0.4,120.9
		c-1.2,3.4,0.5,7.1,3.9,8.3c0.7,0.3,1.5,0.4,2.2,0.4H39c2.5-0.4,4.5-2.2,5.3-4.5l7.8-23.1l28,26.1c1.2,1,2.6,1.5,4.2,1.5h36.4
		l-16-45.6l-46.5,0L86.7,0H45.8z"/>
	
		<linearGradient id="SVGID_00000155139118281315775520000016506734412538309265_" gradientUnits="userSpaceOnUse" x1="-1136.0942" y1="868.1732" x2="-1106.4113" y2="947.2542" gradientTransform="matrix(1.5625 0 0 1.5625 1843.9375 -1350.6737)">
		<stop  offset="0" style="stop-color:#3CCBF4"/>
		<stop  offset="1" style="stop-color:#2892DF"/>
	</linearGradient>
	<path style="fill:url(#SVGID_00000155139118281315775520000016506734412538309265_);" d="M97.8,4.4C96.9,1.8,94.4,0,91.7,0H46.3
		c2.8,0,5.2,1.8,6.1,4.4L91.8,121c1.1,3.4-0.7,7.1-4.1,8.2c-0.7,0.2-1.4,0.3-2.1,0.3H131c3.6,0,6.5-2.9,6.5-6.5
		c0-0.7-0.1-1.4-0.3-2.1L97.8,4.4z"/>
</g>
<g id="Layer_1_1_">
	<path id="path22" class="st4" d="M201.1,143.3l-16.2-28.2h-42.5c-3.8,0-7.3,2-9.1,5.3l-34.4,59.9c-1.9,3.3-1.9,7.2,0,10.5
		l13.1,22.8l16.2-28l24.3-42.3L201.1,143.3L201.1,143.3z"/>
	<path id="path26" class="st5" d="M254.6,180.3l-34.4-59.9c-1.9-3.3-5.4-5.3-9.1-5.3h-26.2l16.2,28.2l24.3,42.3l-24.3,42.3h32.3
		l21.2-37C256.5,187.6,256.5,183.6,254.6,180.3"/>
	<path id="path30" class="st6" d="M233.4,227.8h-81l-24.3-42.3l-16.2,28l21.3,37.1c1.9,3.3,5.4,5.3,9.1,5.3H211c3.8,0,7.3-2,9.1-5.3
		L233.4,227.8L233.4,227.8z"/>
	<path class="st7" d="M201,227.8h-48.7l-24.3-42.3l24.3-42.3H201l24.4,42.3L201,227.8z M176.7,164.4c-11.7,0-21.1,9.4-21.1,21.1
		s9.4,21.1,21.1,21.1c11.7,0,21.1-9.4,21.1-21.1S188.4,164.4,176.7,164.4z"/>
</g>
</svg>
