<?xml version="1.0" encoding="utf-8"?>
<!-- Generator: Adobe Illustrator 28.0.0, SVG Export Plug-In . SVG Version: 6.00 Build 0)  -->
<svg version="1.1" id="Layer_1" xmlns="http://www.w3.org/2000/svg" xmlns:xlink="http://www.w3.org/1999/xlink" x="0px" y="0px"
	 viewBox="0 0 256 256" style="enable-background:new 0 0 256 256;" xml:space="preserve">
<g>
	<rect x="62.5" y="68" style="fill:#066DA5;" width="26.5" height="24"/>
	<rect x="31.6" y="68" style="fill:#066DA5;" width="25.9" height="24"/>
	<rect x="62.5" y="97.1" style="fill:#066DA5;" width="26.5" height="24"/>
	<rect x="31.6" y="97.1" style="fill:#066DA5;" width="25.9" height="24"/>
	<rect y="97.1" style="fill:#066DA5;" width="26.5" height="24"/>
	<rect x="125" y="97.1" style="fill:#066DA5;" width="26.5" height="24"/>
	<rect x="93.4" y="39" style="fill:#066DA5;" width="26.5" height="24"/>
	<rect x="93.4" y="68" style="fill:#066DA5;" width="26.5" height="24"/>
	<rect x="93.4" y="97.1" style="fill:#066DA5;" width="26.5" height="24"/>
	<path style="fill:#066DA5;" d="M221.3,103.4c-2.5-18.3-22.1-29-22.1-29s-18.3,22.1-5.1,46.7c-3.8,1.9-10.1,4.4-19.6,4.4H0.9
		c-3.2,12-3.2,91.5,84,91.5c62.5,0,109.2-29,131.3-82.1c32.8,2.5,39.8-24.6,39.8-24.6S244.6,99.6,221.3,103.4z"/>
</g>
</svg>
