<?xml version="1.0" encoding="utf-8"?>
<!-- Generator: Adobe Illustrator 28.0.0, SVG Export Plug-In . SVG Version: 6.00 Build 0)  -->
<svg version="1.1" id="Layer_1" xmlns="http://www.w3.org/2000/svg" xmlns:xlink="http://www.w3.org/1999/xlink" x="0px" y="0px"
	 viewBox="0 0 256 256" style="enable-background:new 0 0 256 256;" xml:space="preserve">
<g>
	<path style="fill:#31A7AA;" d="M109.8,243.6h36.4c-3.9-9.5-3.8-19.1,0.1-28.9h-36.6C113.6,224.5,113.6,234,109.8,243.6z"/>
	<path style="fill:#3AB5BF;" d="M5.8,193.7c0,8.3,6.8,15.1,15.1,15.1h129.9c0,0,0.1,0,0.1,0h84.3c8.3,0,15.1-6.8,15.1-15.1v-3.4H5.8
		V193.7z"/>
	<path style="fill:#EDFCFC;" d="M202.7,171.6H53.3c-6.5,0-11.9-5.3-11.9-11.9V49.8H20.9c-8.3,0-15.1,6.8-15.1,15.1v119.7h244.4V64.9
		c0-8.3-6.8-15.1-15.1-15.1h-20.6v109.9C214.5,166.2,209.2,171.6,202.7,171.6z"/>
	<path style="fill:#A9A8F9;" d="M136.1,150.9h51.3c3.7,0,6.7-3,6.7-6.7v-16.4c0-3.7-3-6.7-6.7-6.7h-51.3v0c-3.7,0-6.7,3-6.7,6.7
		v16.4C129.4,147.9,132.4,150.9,136.1,150.9z"/>
	<path style="fill:#F98FDA;" d="M90.1,89.9c-0.1,0-0.2,0-0.3,0c-0.1,0-0.2,0-0.3,0c0,0,0,0,0,0c0,0,0,0,0,0
		c-5.1,0.1-9.9,2.6-12.8,6.7c3.8,2.8,8.4,4.3,13.1,4.3c4.7,0,9.3-1.5,13.1-4.3C100,92.6,95.3,90,90.1,89.9z"/>
	<path style="fill:#FC8365;" d="M89.8,69.9c-3.9,0-7.1,3.2-7.1,7.1c0,3.8,3.1,7,6.8,7.1c0.2,0,0.4,0,0.6,0c3.7-0.1,6.8-3.3,6.8-7.1
		C96.9,73.1,93.8,69.9,89.8,69.9z"/>
	<path style="fill:#EDFCFC;" d="M80.7,86.1c-2.3-2.4-3.8-5.6-3.8-9.1c0-7.1,5.8-12.9,12.9-12.9c7.1,0,12.9,5.8,12.9,12.9
		c0,3.5-1.5,6.7-3.8,9.1c3.2,1.5,6,3.7,8.2,6.5c3.1-3.9,4.9-8.8,4.9-13.8c0-12.2-10-22.2-22.2-22.2c-12.2,0-22.2,10-22.2,22.2
		c0,0,0,0,0,0s0,0,0,0c0,5,1.7,9.9,4.9,13.8C74.7,89.8,77.5,87.6,80.7,86.1z"/>
	<path style="fill:#EDFCFC;" d="M108.8,99.4c0,0-0.1,0.1-0.1,0.1c-5.2,4.7-11.8,7.3-18.8,7.3c-7,0-13.7-2.6-18.9-7.3
		c-5.1-4.6-8.3-11-9-17.8H47.3v78c0,3.3,2.7,6,6,6h149.4c3.3,0,6-2.7,6-6v-78h-91C117,88.4,113.8,94.7,108.8,99.4z M109.4,154.6H59
		c-1.6,0-2.9-1.3-2.9-2.9s1.3-2.9,2.9-2.9h50.4c1.6,0,2.9,1.3,2.9,2.9S111,154.6,109.4,154.6z M109.4,138.9H59
		c-1.6,0-2.9-1.3-2.9-2.9s1.3-2.9,2.9-2.9h50.4c1.6,0,2.9,1.3,2.9,2.9S111,138.9,109.4,138.9z M109.4,123.2H59
		c-1.6,0-2.9-1.3-2.9-2.9c0-1.6,1.3-2.9,2.9-2.9h50.4c1.6,0,2.9,1.3,2.9,2.9C112.3,121.9,111,123.2,109.4,123.2z M133.6,96.9h56.3
		c1.6,0,2.9,1.3,2.9,2.9c0,1.6-1.3,2.9-2.9,2.9h-56.3c-1.6,0-2.9-1.3-2.9-2.9C130.7,98.2,132,96.9,133.6,96.9z M136.1,115.2h51.3
		c6.9,0,12.6,5.6,12.6,12.6v16.4c0,6.9-5.6,12.6-12.6,12.6h-51.3c-6.9,0-12.6-5.6-12.6-12.6v-16.4
		C123.5,120.9,129.2,115.2,136.1,115.2z"/>
	<path style="fill:#EDFCFC;" d="M47.3,75.8h14.7c1.5-14.1,13.4-25.1,27.9-25.1c14.5,0,26.4,11,27.9,25.1h91V46.9c0,0,0,0,0,0
		s0,0,0,0v-0.7H47.3V75.8z"/>
	<path style="fill:#70F9D5;" d="M117.3,26.4c0-1.7-1.4-3.2-3.2-3.2c-1.7,0-3.2,1.4-3.2,3.2c0,1.7,1.4,3.2,3.2,3.2
		C115.8,29.6,117.3,28.2,117.3,26.4z"/>
	<path style="fill:#C3D147;" d="M93.2,26.4c0-1.7-1.4-3.2-3.2-3.2c-1.7,0-3.2,1.4-3.2,3.2c0,1.7,1.4,3.2,3.2,3.2
		C91.7,29.6,93.2,28.2,93.2,26.4z"/>
	<path style="fill:#F98FDA;" d="M69.1,26.4c0-1.7-1.4-3.2-3.2-3.2c-1.7,0-3.2,1.4-3.2,3.2c0,1.7,1.4,3.2,3.2,3.2
		C67.7,29.6,69.1,28.2,69.1,26.4z"/>
	<path style="fill:#3AB5BF;" d="M208.7,18.5c0-3.3-2.7-6-6-6H53.3c-3.3,0-6,2.7-6,6v21.9h161.4V18.5z M65.9,35.4c-5,0-9-4-9-9
		c0-5,4-9,9-9c5,0,9,4,9,9C74.9,31.4,70.9,35.4,65.9,35.4z M90,35.4c-5,0-9-4-9-9c0-5,4-9,9-9c5,0,9,4,9,9C99,31.4,95,35.4,90,35.4z
		 M114.1,35.4c-5,0-9-4-9-9c0-5,4-9,9-9c5,0,9,4,9,9C123.1,31.4,119.1,35.4,114.1,35.4z M171.6,29.3h-36.4c-1.6,0-2.9-1.3-2.9-2.9
		c0-1.6,1.3-2.9,2.9-2.9h36.4c1.6,0,2.9,1.3,2.9,2.9C174.5,28,173.2,29.3,171.6,29.3z M196.4,29.3h-2.1v2.1c0,1.6-1.3,2.9-2.9,2.9
		s-2.9-1.3-2.9-2.9v-2.1h-2.1c-1.6,0-2.9-1.3-2.9-2.9c0-1.6,1.3-2.9,2.9-2.9h2.1v-2.1c0-1.6,1.3-2.9,2.9-2.9s2.9,1.3,2.9,2.9v2.1
		h2.1c1.6,0,2.9,1.3,2.9,2.9C199.3,28,198,29.3,196.4,29.3z"/>
	<rect x="5.8" y="184.6" width="244.4" height="5.8"/>
	<path d="M235.1,44h-20.6v5.8h20.6c8.3,0,15.1,6.8,15.1,15.1v119.7v5.8v3.4c0,8.3-6.8,15.1-15.1,15.1h-84.3c0.4,0,0.8,0.1,1.2,0.3
		c1.4,0.7,2,2.5,1.3,3.9c-0.3,0.5-0.5,1.1-0.8,1.6h82.5c11.5,0,20.9-9.4,20.9-20.9V64.9C256,53.4,246.6,44,235.1,44z"/>
	<path d="M103.9,209.1c1.4-0.7,3.2-0.1,3.9,1.3c0.7,1.4,1.3,2.8,1.9,4.2h36.6c0.6-1.4,1.2-2.8,1.9-4.2c0.5-1,1.5-1.6,2.6-1.6H20.9
		c-8.3,0-15.1-6.8-15.1-15.1v-3.4v-5.8V64.9c0-8.3,6.8-15.1,15.1-15.1h20.6V44H20.9C9.4,44,0,53.4,0,64.9v128.8
		c0,11.5,9.4,20.9,20.9,20.9h82.5c-0.2-0.5-0.5-1.1-0.8-1.6C101.9,211.6,102.5,209.8,103.9,209.1z"/>
	<path d="M208.7,46.9L208.7,46.9C208.7,46.9,208.7,46.9,208.7,46.9C208.7,46.9,208.7,46.9,208.7,46.9z"/>
	<path d="M150.8,249.4C150.8,249.4,150.8,249.4,150.8,249.4L150.8,249.4C150.8,249.4,150.8,249.4,150.8,249.4z"/>
	<path d="M152.1,209.1c-0.4-0.2-0.8-0.3-1.2-0.3c0,0-0.1,0-0.1,0c-1.1,0-2.1,0.6-2.6,1.6c-0.7,1.4-1.3,2.8-1.9,4.2
		c-3.9,9.9-3.9,19.4-0.1,28.9h6.4c-4.6-9.6-4.6-18.9,0-28.9c0.2-0.5,0.5-1.1,0.8-1.6C154.1,211.6,153.5,209.8,152.1,209.1z"/>
	<path d="M105.2,249.4C105.2,249.4,105.2,249.4,105.2,249.4L105.2,249.4C105.2,249.4,105.2,249.4,105.2,249.4z"/>
	<path d="M109.8,243.6c3.9-9.5,3.8-19.1-0.1-28.9c-0.6-1.4-1.2-2.8-1.9-4.2c-0.7-1.4-2.5-2-3.9-1.3c-1.4,0.7-2,2.5-1.3,3.9
		c0.3,0.5,0.5,1.1,0.8,1.6c4.6,10.1,4.6,19.3,0,28.9H109.8z"/>
	<path d="M146.2,243.6h-36.4h-6.4h-12c-1.6,0-2.9,1.3-2.9,2.9c0,1.6,1.3,2.9,2.9,2.9h13.8h0h45.5h0h13.8c1.6,0,2.9-1.3,2.9-2.9
		c0-1.6-1.3-2.9-2.9-2.9h-12H146.2z"/>
	<path d="M41.5,49.8v109.9c0,6.5,5.3,11.9,11.9,11.9h149.4c6.5,0,11.9-5.3,11.9-11.9V49.8V44V18.5c0-6.5-5.3-11.9-11.9-11.9H53.3
		c-6.5,0-11.9,5.3-11.9,11.9V44V49.8z M41.5,43.3c0-1.6,1.3-2.9,2.9-2.9h2.9V18.5c0-3.3,2.7-6,6-6h149.4c3.3,0,6,2.7,6,6v21.9h2.9
		c1.6,0,2.9,1.3,2.9,2.9s-1.3,2.9-2.9,2.9h-2.9v0.7v0v28.9h2.9c1.6,0,2.9,1.3,2.9,2.9c0,1.6-1.3,2.9-2.9,2.9h-2.9v78
		c0,3.3-2.7,6-6,6H53.3c-3.3,0-6-2.7-6-6v-78h-2.9c-1.6,0-2.9-1.3-2.9-2.9c0-1.6,1.3-2.9,2.9-2.9h2.9V46.2h-2.9
		C42.8,46.2,41.5,44.9,41.5,43.3z"/>
	<path d="M44.4,46.2h2.9h161.4h2.9c1.6,0,2.9-1.3,2.9-2.9s-1.3-2.9-2.9-2.9h-2.9H47.3h-2.9c-1.6,0-2.9,1.3-2.9,2.9
		S42.8,46.2,44.4,46.2z"/>
	<path d="M65.9,17.4c-5,0-9,4-9,9c0,5,4,9,9,9c5,0,9-4,9-9C74.9,21.5,70.9,17.4,65.9,17.4z M62.7,26.4c0-1.7,1.4-3.2,3.2-3.2
		c1.7,0,3.2,1.4,3.2,3.2c0,1.7-1.4,3.2-3.2,3.2C64.2,29.6,62.7,28.2,62.7,26.4z"/>
	<path d="M90,17.4c-5,0-9,4-9,9c0,5,4,9,9,9c5,0,9-4,9-9C99,21.5,95,17.4,90,17.4z M86.8,26.4c0-1.7,1.4-3.2,3.2-3.2
		c1.7,0,3.2,1.4,3.2,3.2c0,1.7-1.4,3.2-3.2,3.2C88.3,29.6,86.8,28.2,86.8,26.4z"/>
	<path d="M114.1,17.4c-5,0-9,4-9,9c0,5,4,9,9,9c5,0,9-4,9-9C123.1,21.5,119.1,17.4,114.1,17.4z M110.9,26.4c0-1.7,1.4-3.2,3.2-3.2
		c1.7,0,3.2,1.4,3.2,3.2c0,1.7-1.4,3.2-3.2,3.2C112.4,29.6,110.9,28.2,110.9,26.4z"/>
	<path d="M171.6,23.5h-36.4c-1.6,0-2.9,1.3-2.9,2.9c0,1.6,1.3,2.9,2.9,2.9h36.4c1.6,0,2.9-1.3,2.9-2.9
		C174.5,24.8,173.2,23.5,171.6,23.5z"/>
	<path d="M196.4,23.5h-2.1v5.8h2.1c1.6,0,2.9-1.3,2.9-2.9C199.3,24.8,198,23.5,196.4,23.5z"/>
	<path d="M186.4,23.5c-1.6,0-2.9,1.3-2.9,2.9c0,1.6,1.3,2.9,2.9,2.9h2.1v-5.8H186.4z"/>
	<path d="M194.3,21.4c0-1.6-1.3-2.9-2.9-2.9s-2.9,1.3-2.9,2.9v2.1v5.8v2.1c0,1.6,1.3,2.9,2.9,2.9s2.9-1.3,2.9-2.9v-2.1v-5.8V21.4z"
		/>
	<polygon points="67.6,78.7 67.6,78.7 67.6,78.7 67.6,78.7 	"/>
	<path d="M61.8,78.7c0-1,0.1-2,0.2-2.9H47.3h-2.9c-1.6,0-2.9,1.3-2.9,2.9c0,1.6,1.3,2.9,2.9,2.9h2.9h14.7
		C61.8,80.7,61.8,79.7,61.8,78.7z"/>
	<path d="M117.9,78.7c0,1-0.1,1.9-0.2,2.9h91h2.9c1.6,0,2.9-1.3,2.9-2.9c0-1.6-1.3-2.9-2.9-2.9h-2.9h-91
		C117.8,76.8,117.9,77.8,117.9,78.7z"/>
	<path d="M61.8,78.7c0,1,0.1,1.9,0.2,2.9c0.7,6.8,3.9,13.1,9,17.8c5.2,4.7,11.9,7.3,18.9,7.3c7,0,13.7-2.6,18.8-7.3
		c-0.2,0.1-0.4,0.3-0.6,0.4c-0.4,0.2-0.9,0.3-1.3,0.3c-1.1,0-2.1-0.6-2.6-1.6c-0.4-0.7-0.8-1.4-1.2-2c-3.8,2.8-8.4,4.3-13.1,4.3
		c-4.7,0-9.3-1.5-13.1-4.3c-0.4,0.6-0.9,1.3-1.2,2c-0.5,1-1.5,1.6-2.6,1.6c-0.5,0-0.9-0.1-1.3-0.3c-1.4-0.7-2-2.5-1.2-3.9
		c0.6-1.2,1.3-2.3,2.1-3.4c-3.1-3.9-4.9-8.8-4.9-13.8c0,0,0,0,0,0s0,0,0,0c0-12.2,10-22.2,22.2-22.2c12.2,0,22.2,10,22.2,22.2
		c0,5-1.7,9.9-4.9,13.8c0.8,1,1.5,2.2,2.2,3.4c0.6,1.2,0.3,2.6-0.6,3.4c5.1-4.6,8.2-11,8.9-17.7c0.1-1,0.2-1.9,0.2-2.9
		c0-1-0.1-2-0.2-2.9c-1.5-14.1-13.4-25.1-27.9-25.1c-14.5,0-26.4,11-27.9,25.1C61.8,76.8,61.8,77.8,61.8,78.7z"/>
	<path d="M109.3,95.9c-0.6-1.2-1.3-2.3-2.2-3.4c-2.2-2.8-5-5-8.2-6.5c-2.3,2.3-5.3,3.7-8.7,3.8c0,0,0,0-0.1,0c0,0,0,0,0,0
		c5.1,0.1,9.9,2.6,12.8,6.7c0.5,0.6,0.9,1.3,1.2,2c0.5,1,1.5,1.6,2.6,1.6c0.5,0,0.9-0.1,1.3-0.3c0.2-0.1,0.4-0.2,0.6-0.4
		c0,0,0.1-0.1,0.1-0.1C109.7,98.5,109.9,97.1,109.3,95.9z"/>
	<path d="M89.5,90C89.5,90,89.5,90,89.5,90C89.5,90,89.5,90,89.5,90C89.5,90,89.5,90,89.5,90C89.5,89.9,89.5,90,89.5,90z"/>
	<path d="M89.5,84.1C89.5,84.1,89.6,84.1,89.5,84.1c0.1,0,0.2,0,0.2,0l0.1,0l0.1,0c0.1,0,0.1,0,0.2,0c0,0,0,0,0,0
		C89.9,84.1,89.7,84.1,89.5,84.1z M89.7,84.1L89.7,84.1L89.7,84.1z"/>
	<path d="M89.5,90C89.5,90,89.5,89.9,89.5,90C89.5,89.9,89.5,89.9,89.5,90C89.5,89.9,89.4,89.9,89.5,90c-3.5-0.1-6.6-1.6-8.8-3.8
		c-3.2,1.5-6,3.7-8.2,6.5c-0.8,1-1.5,2.2-2.1,3.4c-0.7,1.4-0.2,3.2,1.2,3.9c0.4,0.2,0.9,0.3,1.3,0.3c1.1,0,2.1-0.6,2.6-1.6
		c0.4-0.7,0.8-1.4,1.2-2C79.6,92.6,84.4,90,89.5,90z"/>
	
		<line style="fill:none;stroke:#000000;stroke-width:0;stroke-linecap:round;stroke-linejoin:round;" x1="89.7" y1="84.1" x2="89.7" y2="84.1"/>
	<path d="M89.8,64.1c-7.1,0-12.9,5.8-12.9,12.9c0,3.5,1.5,6.7,3.8,9.1c2.3,2.3,5.3,3.7,8.7,3.8c0,0,0,0,0.1,0c0,0,0,0,0,0
		c0,0,0,0,0,0c0.1,0,0.2,0,0.3,0c0.1,0,0.2,0,0.3,0c0,0,0,0,0,0c0,0,0,0,0.1,0c3.4-0.1,6.5-1.6,8.7-3.8c2.3-2.4,3.8-5.6,3.8-9.1
		C102.8,69.9,97,64.1,89.8,64.1z M90.1,84.1C90.1,84.1,90.1,84.1,90.1,84.1c-0.1,0-0.1,0-0.2,0l-0.1,0l-0.1,0c0,0-0.1,0-0.2,0
		c0,0,0,0,0,0c-3.8-0.2-6.8-3.3-6.8-7.1c0-3.9,3.2-7.1,7.1-7.1c3.9,0,7.1,3.2,7.1,7.1C96.9,80.8,93.9,84,90.1,84.1z"/>
	<path d="M136.1,156.7h51.3c6.9,0,12.6-5.6,12.6-12.6v-16.4c0-6.9-5.6-12.6-12.6-12.6h-51.3c-6.9,0-12.6,5.6-12.6,12.6v16.4
		C123.5,151.1,129.2,156.7,136.1,156.7z M129.4,127.8c0-3.7,3-6.7,6.7-6.7v0h51.3c3.7,0,6.7,3,6.7,6.7v16.4c0,3.7-3,6.7-6.7,6.7
		h-51.3c-3.7,0-6.7-3-6.7-6.7V127.8z"/>
	<path d="M133.6,102.7h56.3c1.6,0,2.9-1.3,2.9-2.9c0-1.6-1.3-2.9-2.9-2.9h-56.3c-1.6,0-2.9,1.3-2.9,2.9
		C130.7,101.4,132,102.7,133.6,102.7z"/>
	<path d="M109.4,133.1H59c-1.6,0-2.9,1.3-2.9,2.9s1.3,2.9,2.9,2.9h50.4c1.6,0,2.9-1.3,2.9-2.9S111,133.1,109.4,133.1z"/>
	<path d="M109.4,117.4H59c-1.6,0-2.9,1.3-2.9,2.9c0,1.6,1.3,2.9,2.9,2.9h50.4c1.6,0,2.9-1.3,2.9-2.9
		C112.3,118.7,111,117.4,109.4,117.4z"/>
	<path d="M109.4,148.8H59c-1.6,0-2.9,1.3-2.9,2.9s1.3,2.9,2.9,2.9h50.4c1.6,0,2.9-1.3,2.9-2.9S111,148.8,109.4,148.8z"/>
</g>
</svg>
