<?xml version="1.0" encoding="utf-8"?>
<!-- Generator: Adobe Illustrator 28.0.0, SVG Export Plug-In . SVG Version: 6.00 Build 0)  -->
<svg version="1.1" id="Layer_1" xmlns="http://www.w3.org/2000/svg" xmlns:xlink="http://www.w3.org/1999/xlink" x="0px" y="0px"
	 viewBox="0 0 256 256" style="enable-background:new 0 0 256 256;" xml:space="preserve">
<path style="fill:#F05133;" d="M251.2,116.6L139.9,5.3c-6.4-6.4-16.8-6.4-23.2,0L93.5,28.4l29.3,29.3c6.8-2.3,14.6-0.8,20.1,4.7
	c5.5,5.5,7,13.3,4.6,20.2l28.3,28.3c6.8-2.4,14.7-0.8,20.2,4.6c7.6,7.6,7.6,20,0,27.6c-7.6,7.6-20,7.6-27.6,0
	c-5.7-5.7-7.2-14.2-4.2-21.3l-26.4-26.4v69.4c1.9,0.9,3.6,2.1,5.2,3.7c7.6,7.6,7.6,20,0,27.6c-7.6,7.6-20,7.6-27.6,0
	c-7.6-7.6-7.6-20,0-27.6c1.9-1.9,4.1-3.3,6.4-4.3v-70c-2.3-1-4.5-2.4-6.4-4.3c-5.8-5.8-7.2-14.3-4.2-21.4L82.1,39.8L5.8,116.1
	c-6.4,6.4-6.4,16.8,0,23.2l111.3,111.3c6.4,6.4,16.8,6.4,23.2,0l110.8-110.8C257.6,133.5,257.6,123.1,251.2,116.6z"/>
</svg>
