<?xml version="1.0" encoding="utf-8"?>
<!-- Generator: Adobe Illustrator 28.0.0, SVG Export Plug-In . SVG Version: 6.00 Build 0)  -->
<svg version="1.1" id="Layer_1" xmlns="http://www.w3.org/2000/svg" xmlns:xlink="http://www.w3.org/1999/xlink" x="0px" y="0px"
	 viewBox="0 0 256 256" style="enable-background:new 0 0 256 256;" xml:space="preserve">
<g>
	
		<radialGradient id="SVGID_1_" cx="0.6879" cy="256.9792" r="0.3704" gradientTransform="matrix(453.8224 0 0 -453.8224 -235.3223 116707.2656)" gradientUnits="userSpaceOnUse">
		<stop  offset="0" style="stop-color:#AEB2D5"/>
		<stop  offset="0.3" style="stop-color:#AEB2D5"/>
		<stop  offset="0.75" style="stop-color:#484C89"/>
		<stop  offset="1" style="stop-color:#484C89"/>
	</radialGradient>
	<path style="fill:url(#SVGID_1_);" d="M128,60.7C57.3,60.7,0,90.8,0,128c0,37.2,57.3,67.3,128,67.3s128-30.1,128-67.3
		C256,90.8,198.7,60.7,128,60.7z M128,190.3C60.1,190.3,5,162.4,5,128c0-34.4,55.1-62.3,123-62.3S251,93.6,251,128
		C251,162.4,195.9,190.3,128,190.3z"/>
	<path style="fill:#777BB3;" d="M190.9,111.7h-7.8l-4.4,22.7h5.6c5.3,0,9.2-0.9,11.5-2.8c2.3-1.8,4-5,4.8-9.5c0.8-4,0.6-6.9-0.7-8.2
		C199.3,113,197.1,111.7,190.9,111.7z"/>
	<path style="fill:#777BB3;" d="M76.2,111.7h-7.8L64,134.3h5.6c5.3,0,9.2-0.9,11.5-2.8c2.3-1.8,4-5,4.8-9.5c0.8-4,0.6-6.9-0.7-8.2
		C84.5,113,82.4,111.7,76.2,111.7z"/>
	<path style="fill:#777BB3;" d="M128,65.7C60.1,65.7,5,93.6,5,128c0,34.4,55.1,62.3,123,62.3s123-27.9,123-62.3
		C251,93.6,195.9,65.7,128,65.7z M221.3,124.1c-0.7,3.6-1.9,6.9-3.6,9.9c-1.7,3-3.9,5.7-6.5,8.2c-3.2,3-6.9,5.2-10.8,6.5
		c-3.8,1.3-8.7,1.9-14.6,1.9h-10.3l-3,15.7c-0.3,1.3-1.4,2.2-2.7,2.2h-14.7c-0.8,0-1.6-0.4-2.1-1c-0.5-0.6-0.7-1.5-0.6-2.3l2.9-15.1
		c-0.4,0.3-1,0.5-1.6,0.5h-14.8c-0.8,0-1.6-0.4-2.1-1c-0.5-0.6-0.7-1.5-0.6-2.3l5.8-29.9c0.6-2.9,0.2-4.2,0-4.5c0,0-0.9-1-5.3-1
		h-9.4l-7.1,36.4c-0.3,1.3-1.4,2.2-2.7,2.2h-14.6c-0.8,0-1.6-0.4-2.1-1c-0.5-0.6-0.7-1.5-0.6-2.3l2.5-12.6c-1.6,2.7-3.7,5.3-6.1,7.6
		c-3.2,3-6.9,5.2-10.8,6.5c-3.8,1.3-8.7,1.9-14.6,1.9H60.8l-3,15.7c-0.3,1.3-1.4,2.2-2.7,2.2H40.3c-0.8,0-1.6-0.4-2.1-1
		c-0.5-0.6-0.7-1.5-0.6-2.3l13.1-67.5c0.3-1.3,1.4-2.2,2.7-2.2h28.3c9.3,0,16.3,2.6,20.7,7.6c2.3,2.7,3.8,5.9,4.5,9.6l6.4-33
		c0.3-1.3,1.4-2.2,2.7-2.2h14.6c0.8,0,1.6,0.4,2.1,1c0.5,0.6,0.7,1.5,0.6,2.3l-2.8,14.6h9.6c9,0,15.1,1.6,18.8,5
		c2.5,2.3,3.9,5.5,4.2,9.5l2.4-12.2c0.3-1.3,1.4-2.2,2.7-2.2h28.3c9.3,0,16.3,2.6,20.7,7.6C221.6,108.2,223,115.3,221.3,124.1z"/>
	<path d="M81.7,98.2H53.5l-13.1,67.5H55l3.5-17.9h12.6c5.6,0,10.1-0.6,13.7-1.8c3.6-1.2,6.8-3.1,9.8-5.9c2.5-2.3,4.5-4.8,6-7.5
		c1.5-2.7,2.6-5.7,3.2-9c1.6-8,0.4-14.2-3.5-18.7C96.4,100.5,90.2,98.2,81.7,98.2z M88.7,122.6c-1,5.2-3,9-5.9,11.2
		c-2.9,2.2-7.3,3.3-13.2,3.3h-8.9l5.5-28.2h10.1c5.6,0,9.3,1,11.2,3.1C89.2,114,89.6,117.6,88.7,122.6z"/>
	<path style="fill:#FFFFFF;" d="M76.2,108.9H66.1l-5.5,28.2h8.9c5.9,0,10.3-1.1,13.2-3.3c2.9-2.2,4.9-6,5.9-11.2
		c1-5,0.5-8.6-1.3-10.6C85.5,109.9,81.7,108.9,76.2,108.9z M85.9,122.1c-0.9,4.5-2.5,7.7-4.8,9.5c-2.4,1.8-6.3,2.8-11.5,2.8H64
		l4.4-22.7h7.8c6.2,0,8.4,1.4,9.1,2.2C86.5,115.2,86.7,118,85.9,122.1z"/>
	<path style="fill:#FFFFFF;" d="M106.9,112.7c-0.7-3.7-2.1-6.9-4.5-9.6C98,98,91,95.5,81.7,95.5H53.5c-1.3,0-2.5,0.9-2.7,2.2
		l-13.1,67.5c-0.2,0.8,0.1,1.7,0.6,2.3c0.5,0.6,1.3,1,2.1,1H55c1.3,0,2.5-0.9,2.7-2.2l3-15.7h10.3c5.8,0,10.7-0.6,14.6-1.9
		c4-1.3,7.6-3.5,10.8-6.5c2.5-2.3,4.5-4.8,6.1-7.6L106.9,112.7z M103.9,123.6c-0.6,3.3-1.7,6.3-3.2,9c-1.5,2.7-3.5,5.2-6,7.5
		c-2.9,2.7-6.2,4.7-9.8,5.9c-3.6,1.2-8.2,1.8-13.7,1.8H58.5L55,165.7H40.3l13.1-67.5h28.3c8.5,0,14.7,2.2,18.6,6.7
		C104.2,109.4,105.4,115.6,103.9,123.6z"/>
	<path d="M140.1,98.2h-13l3.5-17.9H116l-13.1,67.5h14.6l7.5-38.7h11.7c3.7,0,6.2,0.6,7.3,1.9c1.1,1.2,1.4,3.6,0.7,6.9l-5.8,29.9
		h14.8l6.1-31.4c1.2-6.4,0.3-11-2.8-13.9C153.9,99.7,148.3,98.2,140.1,98.2z"/>
	<path style="fill:#FFFFFF;" d="M158.9,100.5c-3.7-3.4-9.8-5-18.8-5h-9.6l2.8-14.6c0.2-0.8-0.1-1.7-0.6-2.3c-0.5-0.6-1.3-1-2.1-1
		H116c-1.3,0-2.5,0.9-2.7,2.2l-6.4,33l-4.3,21.9l-2.5,12.6c-0.2,0.8,0.1,1.7,0.6,2.3c0.5,0.6,1.3,1,2.1,1h14.6
		c1.3,0,2.5-0.9,2.7-2.2l7.1-36.4h9.4c4.3,0,5.2,0.9,5.3,1c0.3,0.3,0.6,1.6,0,4.5l-5.8,29.9c-0.2,0.8,0.1,1.7,0.6,2.3
		c0.5,0.6,1.3,1,2.1,1h14.8c0.6,0,1.1-0.2,1.6-0.5l7.8-40.1C162.8,106,161.4,102.8,158.9,100.5z M159.8,116.4l-6.1,31.4h-14.8
		l5.8-29.9c0.7-3.4,0.4-5.7-0.7-6.9c-1.1-1.2-3.6-1.9-7.3-1.9H125l-7.5,38.7h-14.6L116,80.3h14.6l-3.5,17.9h13
		c8.2,0,13.8,1.4,16.9,4.3C160.1,105.4,161.1,110,159.8,116.4z"/>
	<path d="M196.5,98.2h-28.3l-13.1,67.5h14.7l3.5-17.9h12.6c5.6,0,10.1-0.6,13.7-1.8c3.6-1.2,6.8-3.1,9.8-5.9c2.5-2.3,4.5-4.8,6-7.5
		c1.5-2.7,2.6-5.7,3.2-9c1.6-8,0.4-14.2-3.5-18.7C211.2,100.5,205,98.2,196.5,98.2z M203.4,122.6c-1,5.2-3,9-5.9,11.2
		c-2.9,2.2-7.3,3.3-13.2,3.3h-8.9l5.5-28.2h10.1c5.6,0,9.3,1,11.2,3.1C203.9,114,204.4,117.6,203.4,122.6z"/>
	<path style="fill:#FFFFFF;" d="M196.5,95.5h-28.3c-1.3,0-2.5,0.9-2.7,2.2l-2.4,12.2l-7.8,40.1l-2.9,15.1c-0.2,0.8,0.1,1.7,0.6,2.3
		c0.5,0.6,1.3,1,2.1,1h14.7c1.3,0,2.5-0.9,2.7-2.2l3-15.7h10.3c5.8,0,10.7-0.6,14.6-1.9c4-1.3,7.6-3.5,10.8-6.5
		c2.7-2.4,4.9-5.2,6.5-8.2c1.7-3,2.9-6.3,3.6-9.9c1.7-8.8,0.3-15.9-4.2-21C212.7,98,205.8,95.5,196.5,95.5z M218.6,123.6
		c-0.6,3.3-1.7,6.3-3.2,9c-1.5,2.7-3.5,5.2-6,7.5c-2.9,2.7-6.2,4.7-9.8,5.9c-3.6,1.2-8.2,1.8-13.7,1.8h-12.6l-3.5,17.9h-14.7
		l13.1-67.5h28.3c8.5,0,14.7,2.2,18.6,6.7C219,109.4,220.1,115.6,218.6,123.6z"/>
	<path style="fill:#FFFFFF;" d="M190.9,108.9h-10.1l-5.5,28.2h8.9c5.9,0,10.3-1.1,13.2-3.3c2.9-2.2,4.9-6,5.9-11.2
		c1-5,0.5-8.6-1.3-10.6C200.2,109.9,196.5,108.9,190.9,108.9z M200.7,122.1c-0.9,4.5-2.5,7.7-4.8,9.5c-2.4,1.8-6.3,2.8-11.5,2.8
		h-5.6l4.4-22.7h7.8c6.2,0,8.4,1.4,9.1,2.2C201.2,115.2,201.4,118,200.7,122.1z"/>
</g>
</svg>
