<?xml version="1.0" encoding="utf-8"?>
<!-- Generator: Adobe Illustrator 28.0.0, SVG Export Plug-In . SVG Version: 6.00 Build 0)  -->
<svg version="1.1" id="Layer_1" xmlns="http://www.w3.org/2000/svg" xmlns:xlink="http://www.w3.org/1999/xlink" x="0px" y="0px"
	 viewBox="0 0 256 256" style="enable-background:new 0 0 256 256;" xml:space="preserve">
<g>
	<g>
		<path style="fill:#1A1856;" d="M49.7,61v24.4c0,0,22.4,4.7,22.4-12.2S49.7,61,49.7,61z"/>
		<path style="fill:#1A1856;" d="M78.3,8.1L78.3,8.1C35.3,8.1,0.4,43,0.4,86v0c0,43,34.9,77.9,77.9,77.9h0c43,0,77.9-34.9,77.9-77.9
			v0C156.2,43,121.3,8.1,78.3,8.1z M49.7,92v25.1h-8.1V55.2c0,0,38.6-8.3,38.6,17.1C80.2,96.6,49.7,92,49.7,92z M114.9,105.4
			c-0.7,7.9-5.7,12.2-16.7,12.7c-6.7,0.3-12.6-3.2-12.6-3.2l2-6.2c0,0,14.8,7.8,19.1-1.1C109.9,95.3,89.1,98.9,87,86
			c-1.1-6.9,2.5-12.2,10.4-14.3c10.3-1.8,16,2.2,16,2.2l-2,5.9c0,0-13.5-7.4-16.5,1.9C91.4,92.7,116.5,88.8,114.9,105.4z"/>
		<path style="fill:#3F78EA;" d="M41.6,55.2v61.9h8.1V92c0,0,30.5,4.6,30.5-19.7C80.2,46.8,41.6,55.2,41.6,55.2z M49.7,85.4V61
			c0,0,22.4-4.7,22.4,12.2S49.7,85.4,49.7,85.4z"/>
		<path style="fill:#3F78EA;" d="M94.9,81.7c3-9.3,16.5-1.9,16.5-1.9l2-5.9c0,0-5.7-4-16-2.2c-8,2.1-11.5,7.5-10.4,14.3
			c2,12.9,22.9,9.3,19.7,21.6c-4.3,8.9-19.1,1.1-19.1,1.1l-2,6.2c0,0,6,3.4,12.6,3.2c11-0.5,16-4.8,16.7-12.7
			C116.5,88.8,91.4,92.7,94.9,81.7z"/>
	</g>
	<g>
		<polygon style="fill:#42210B;" points="158.7,175.5 178,175.5 168.4,145.3 		"/>
		<path style="fill:#42210B;" d="M177.7,92.1L177.7,92.1c-43,0-77.9,34.9-77.9,77.9v0c0,43,34.9,77.9,77.9,77.9h0
			c43,0,77.9-34.9,77.9-77.9v0C255.6,127,220.7,92.1,177.7,92.1z M186.6,202.1l-6.9-20.2H157l-6.7,20.2h-8.6l21.8-64.2h10l21.9,64.2
			H186.6z M212.7,202.1h-8.4v-46.1h8.4V202.1z M208.4,148.3c-2.9,0-5.2-2.3-5.2-5.2c0-2.9,2.3-5.2,5.2-5.2c2.9,0,5.2,2.3,5.2,5.2
			C213.6,145.9,211.3,148.3,208.4,148.3z"/>
		<path style="fill:#F7931E;" d="M163.5,138l-21.8,64.2h8.6l6.7-20.2h22.7l6.9,20.2h8.9L173.5,138H163.5z M158.7,175.5l9.7-30.2
			l9.6,30.2H158.7z"/>
		<rect x="204.3" y="156.1" style="fill:#F7931E;" width="8.4" height="46.1"/>
		
			<ellipse transform="matrix(0.9925 -0.1222 0.1222 0.9925 -15.9185 26.5379)" style="fill:#F7931E;" cx="208.4" cy="143.1" rx="5.2" ry="5.2"/>
	</g>
</g>
</svg>
