<?xml version="1.0" encoding="utf-8"?>
<!-- Generator: Adobe Illustrator 28.0.0, SVG Export Plug-In . SVG Version: 6.00 Build 0)  -->
<svg version="1.1" id="Layer_1" xmlns="http://www.w3.org/2000/svg" xmlns:xlink="http://www.w3.org/1999/xlink" x="0px" y="0px"
	 viewBox="0 0 256 256" style="enable-background:new 0 0 256 256;" xml:space="preserve">
<g>
	<polygon style="fill:#B0DAFF;" points="92,134.1 101.3,134.1 96.7,122.7 	"/>
	<path style="fill:#B0DAFF;" d="M142.2,115.5h-6.5v11h6.5c3.8,0,7-2.5,7-5.5C149.2,118,146,115.5,142.2,115.5z"/>
	<path style="fill:#B0DAFF;" d="M231.5,142.8v-29.7c0-2,1.2-3.9,3.1-4.6l10-4.1l-8.4-25.7l-10.5,2.5c-2,0.5-4-0.3-5.2-1.9l-17.5-24
		c-1.2-1.6-1.3-3.9-0.2-5.6l5.7-9.2l-21.9-15.9l-7,8.2c-1.3,1.5-3.4,2.1-5.4,1.5l-28.3-9.2c-1.9-0.6-3.3-2.4-3.5-4.4L141.5,10h-27.1
		l-0.8,10.8c-0.2,2-1.5,3.8-3.5,4.4l-28.3,9.2c-1.9,0.6-4,0-5.4-1.5l-7-8.2L47.6,40.5l5.7,9.2c1.1,1.7,1,3.9-0.2,5.6l-17.5,24
		c-1.2,1.6-3.3,2.4-5.2,1.9l-10.5-2.5l-8.4,25.7l10,4.1c1.9,0.8,3.1,2.6,3.1,4.6v29.7c0,2-1.2,3.9-3.1,4.6l-10,4.1l8.4,25.7
		l10.5-2.5c2-0.5,4,0.3,5.2,1.9l17.5,24c1.2,1.6,1.3,3.9,0.2,5.6l-5.7,9.2l21.9,15.9l7-8.2c1.3-1.5,3.4-2.1,5.4-1.5l28.3,9.2
		c1.9,0.6,3.3,2.4,3.5,4.4l0.8,10.8h27.1l0.8-10.8c0.2-2,1.5-3.8,3.5-4.4l28.3-9.2c1.9-0.6,4,0,5.4,1.5l7,8.2l21.9-15.9l-5.7-9.2
		c-1.1-1.7-1-3.9,0.2-5.6l17.5-24c1.2-1.6,3.3-2.4,5.2-1.9l10.5,2.5l8.4-25.7l-10-4.1C232.7,146.7,231.5,144.9,231.5,142.8z
		 M216.9,93.4c2.9-0.9,5.9,0.7,6.9,3.5c0.9,2.9-0.6,5.9-3.5,6.9c0,0,0,0,0,0c-0.6,0.2-1.1,0.3-1.7,0.3c-2.3,0-4.4-1.5-5.2-3.8
		C212.5,97.5,214,94.4,216.9,93.4z M179.6,47.9c1.8-2.4,5.2-3,7.6-1.2c1.2,0.9,2,2.1,2.2,3.6c0.2,1.4-0.1,2.9-1,4.1
		c-0.9,1.2-2.1,1.9-3.5,2.2c-0.3,0-0.6,0.1-0.9,0.1c-1.1,0-2.2-0.4-3.2-1c-1.2-0.9-2-2.1-2.2-3.6C178.4,50.5,178.7,49.1,179.6,47.9z
		 M167.2,62.9c1.6-2.3,4.7-2.9,7-1.3c1.2,0.8,2.4,1.7,3.6,2.6c2.2,1.7,2.6,4.9,0.9,7c-1,1.3-2.5,1.9-4,1.9c-1.1,0-2.2-0.3-3.1-1.1
		c-1-0.8-2.1-1.6-3.1-2.3C166.2,68.3,165.6,65.2,167.2,62.9z M177.5,108.5v41.9h-10v-41.9H177.5z M151.1,50.6
		c2.7,0.8,4.2,3.6,3.4,6.2c-0.7,2.2-2.7,3.6-4.8,3.6c-0.5,0-1-0.1-1.4-0.2c-6.3-1.9-12.8-2.9-19.4-2.9c-2.8,0-5-2.3-5-5.1
		c0-2.8,2.3-5,5-5c0,0,0,0,0.1,0C136.5,47.3,143.9,48.4,151.1,50.6z M128,27.5c3,0,5.5,2.4,5.5,5.5c0,3-2.5,5.5-5.5,5.5
		s-5.5-2.5-5.5-5.5C122.5,29.9,125,27.5,128,27.5z M117.5,147.2l-9.3,3.8l-2.8-6.9H87.9l-2.8,6.9l-9.3-3.8L92,107.5
		c0.8-1.9,2.6-3.1,4.6-3.1c2,0,3.9,1.2,4.6,3.1L117.5,147.2z M66.6,50.3c0.2-1.4,1-2.7,2.2-3.6c2.4-1.8,5.8-1.2,7.6,1.2
		c0.9,1.2,1.2,2.6,1,4.1c-0.2,1.4-1,2.7-2.2,3.6c-0.9,0.7-2,1-3.2,1c-0.3,0-0.6,0-0.9-0.1c-1.4-0.2-2.7-1-3.6-2.2
		C66.8,53.1,66.4,51.7,66.6,50.3z M39.1,162.6c-0.6,0.2-1.1,0.3-1.7,0.3c-2.3,0-4.4-1.5-5.2-3.8c-0.9-2.9,0.6-5.9,3.5-6.9
		c0,0,0,0,0,0c2.9-0.9,5.9,0.6,6.9,3.5C43.5,158.5,42,161.6,39.1,162.6z M42.6,100.3c-0.8,2.3-2.9,3.8-5.2,3.8
		c-0.6,0-1.1-0.1-1.7-0.3c-2.9-0.9-4.4-4-3.5-6.9c0.9-2.9,4-4.4,6.9-3.5h0C42,94.4,43.5,97.5,42.6,100.3z M63.4,176.6
		c-13-17.2-18.5-38.5-15.5-59.8c3-21.4,14.2-40.3,31.4-53.3c1.3-1,2.7-2,4.1-2.9c6.3-4.1,13.1-7.4,20.2-9.7c2.6-0.8,5.5,0.6,6.3,3.3
		c0.8,2.6-0.6,5.5-3.3,6.3c-6.3,2-12.2,4.8-17.7,8.5c-1.2,0.8-2.4,1.6-3.6,2.5c-15.1,11.4-24.9,27.9-27.5,46.7
		c-2.6,18.7,2.2,37.3,13.6,52.4c1.7,2.2,1.2,5.4-1,7c-0.9,0.7-2,1-3,1C65.9,178.6,64.4,177.9,63.4,176.6z M76.4,208.1
		c-1.1,1.5-2.7,2.2-4.4,2.2c-1.1,0-2.2-0.3-3.2-1c-1.2-0.9-1.9-2.1-2.2-3.6c-0.2-1.4,0.1-2.9,1-4.1c1.8-2.4,5.2-3,7.6-1.2
		C77.7,202.3,78.2,205.7,76.4,208.1z M88.8,193.1c-1,1.4-2.5,2.2-4.1,2.2c-1,0-2-0.3-2.9-0.9c-1.2-0.8-2.4-1.7-3.6-2.6
		c-2.2-1.7-2.6-4.9-0.9-7c1.7-2.2,4.9-2.6,7-0.9c1,0.8,2.1,1.6,3.1,2.3C89.8,187.7,90.4,190.8,88.8,193.1z M104.9,205.4
		c-2.7-0.8-4.2-3.6-3.4-6.2c0.8-2.7,3.6-4.2,6.2-3.4c6.3,1.9,12.8,2.9,19.4,2.9c2.8,0,5,2.3,5,5.1c0,2.8-2.3,5-5,5c0,0,0,0-0.1,0
		C119.5,208.7,112.1,207.6,104.9,205.4z M128,228.5c-3,0-5.5-2.4-5.5-5.5c0-3,2.5-5.5,5.5-5.5s5.5,2.5,5.5,5.5
		C133.5,226.1,131,228.5,128,228.5z M142.2,136.6h-6.5v13.7h-10v-39.8c0-2.8,2.2-5,5-5h11.5c9.4,0,17,7,17,15.6
		C159.2,129.6,151.6,136.6,142.2,136.6z M189.4,205.8c-0.2,1.4-1,2.7-2.2,3.6c-1,0.7-2.1,1-3.2,1c-1.7,0-3.3-0.8-4.4-2.2
		c0,0,0,0,0,0c-1.8-2.4-1.2-5.9,1.2-7.6c2.4-1.8,5.8-1.2,7.6,1.2C189.2,202.9,189.6,204.3,189.4,205.8z M208.1,139.2
		c-3,21.4-14.2,40.3-31.4,53.3c-1.3,1-2.7,2-4.1,2.9c-6.3,4.1-13.1,7.4-20.2,9.7c-0.5,0.2-1,0.2-1.5,0.2c-2.1,0-4.1-1.4-4.8-3.5
		c-0.8-2.6,0.6-5.5,3.3-6.3c6.3-2,12.2-4.8,17.7-8.5h0c0,0,0.1-0.1,0.1-0.1c1.2-0.8,2.3-1.6,3.5-2.4c15.1-11.4,24.9-27.9,27.5-46.7
		c2.6-18.7-2.2-37.3-13.6-52.4c-1.7-2.2-1.2-5.4,1-7c2.2-1.7,5.4-1.2,7,1C205.6,96.7,211.1,117.9,208.1,139.2z M223.8,159.1
		c-0.7,2.3-2.9,3.8-5.2,3.8c-0.6,0-1.1-0.1-1.7-0.3h0c-2.9-0.9-4.4-4-3.5-6.9c0.9-2.9,4-4.4,6.9-3.5
		C223.1,153.1,224.7,156.2,223.8,159.1z"/>
	<path style="fill:#232323;" d="M252.7,144.1l-11.2-4.6v-23l11.2-4.6c2.4-1,3.7-3.7,2.9-6.2l-11.2-34.5c-0.8-2.5-3.4-3.9-5.9-3.3
		l-11.8,2.8l-13.5-18.6l6.3-10.3c1.4-2.2,0.8-5.2-1.3-6.7l-29.4-21.4c-2.1-1.5-5.1-1.2-6.8,0.8l-7.8,9.2l-21.9-7.1l-0.9-12
		C151,2,148.8,0,146.2,0h-36.4c-2.6,0-4.8,2-5,4.6l-0.9,12L82,23.8l-7.8-9.2c-1.7-2-4.6-2.3-6.8-0.8L37.9,35.1
		c-2.1,1.5-2.7,4.5-1.3,6.7l6.3,10.3L29.4,70.7l-11.8-2.8c-2.6-0.6-5.1,0.8-5.9,3.3L0.4,105.7c-0.8,2.5,0.4,5.2,2.9,6.2l11.2,4.6v23
		l-11.2,4.6c-2.4,1-3.7,3.7-2.9,6.2l11.2,34.5c0.8,2.5,3.4,3.9,5.9,3.3l11.8-2.8l13.5,18.6l-6.3,10.3c-1.4,2.2-0.8,5.2,1.3,6.7
		l29.4,21.4c2.1,1.5,5.1,1.2,6.8-0.8l7.8-9.2l21.9,7.1l0.9,12c0.2,2.6,2.4,4.6,5,4.6h36.4c2.6,0,4.8-2,5-4.6l0.9-12l21.9-7.1
		l7.8,9.2c1.7,2,4.6,2.3,6.8,0.8l29.4-21.4c2.1-1.5,2.7-4.5,1.3-6.7l-6.3-10.3l13.5-18.6l11.8,2.8c2.5,0.6,5.1-0.8,5.9-3.3
		l11.2-34.5C256.4,147.8,255.1,145.1,252.7,144.1z M236.2,177.3l-10.5-2.5c-2-0.5-4,0.3-5.2,1.9l-17.5,24c-1.2,1.6-1.3,3.9-0.2,5.6
		l5.7,9.2l-21.9,15.9l-7-8.2c-1.3-1.5-3.4-2.1-5.4-1.5l-28.3,9.2c-1.9,0.6-3.3,2.4-3.5,4.4l-0.8,10.8h-27.1l-0.8-10.8
		c-0.2-2-1.5-3.8-3.5-4.4l-28.3-9.2c-1.9-0.6-4,0-5.4,1.5l-7,8.2l-21.9-15.9l5.7-9.2c1.1-1.7,1-3.9-0.2-5.6l-17.5-24
		c-1.2-1.6-3.3-2.4-5.2-1.9l-10.5,2.5l-8.4-25.7l10-4.1c1.9-0.8,3.1-2.6,3.1-4.6v-29.7c0-2-1.2-3.9-3.1-4.6l-10-4.1l8.4-25.7
		l10.5,2.5c2,0.5,4-0.3,5.2-1.9l17.5-24c1.2-1.6,1.3-3.9,0.2-5.6l-5.7-9.2l21.9-15.9l7,8.2c1.3,1.5,3.4,2.1,5.4,1.5l28.3-9.2
		c1.9-0.6,3.3-2.4,3.5-4.4l0.8-10.8h27.1l0.8,10.8c0.2,2,1.5,3.8,3.5,4.4l28.3,9.2c1.9,0.6,4,0,5.4-1.5l7-8.2l21.9,15.9l-5.7,9.2
		c-1.1,1.7-1,3.9,0.2,5.6l17.5,24c1.2,1.6,3.3,2.4,5.2,1.9l10.5-2.5l8.4,25.7l-10,4.1c-1.9,0.8-3.1,2.6-3.1,4.6v29.7
		c0,2,1.2,3.9,3.1,4.6l10,4.1L236.2,177.3z"/>
	<path style="fill:#232323;" d="M218.6,104.1c0.6,0,1.1-0.1,1.7-0.3c0,0,0,0,0,0c2.9-0.9,4.4-4,3.5-6.9c-0.9-2.9-4-4.4-6.9-3.5
		c-2.9,0.9-4.4,4-3.5,6.9C214.1,102.6,216.3,104.1,218.6,104.1z"/>
	<path style="fill:#232323;" d="M220.3,152.2c-2.9-0.9-5.9,0.6-6.9,3.5c-0.9,2.9,0.6,5.9,3.5,6.9h0c0.6,0.2,1.1,0.3,1.7,0.3
		c2.3,0,4.4-1.5,5.2-3.8C224.7,156.2,223.1,153.1,220.3,152.2z"/>
	<path style="fill:#232323;" d="M185.5,78.4c-2.2,1.7-2.7,4.8-1,7c11.4,15.1,16.2,33.7,13.6,52.4c-2.6,18.7-12.4,35.3-27.5,46.7
		c-1.1,0.9-2.3,1.7-3.5,2.4c0,0-0.1,0.1-0.1,0.1h0c-5.5,3.6-11.5,6.5-17.7,8.5c-2.6,0.8-4.1,3.7-3.3,6.3c0.7,2.1,2.7,3.5,4.8,3.5
		c0.5,0,1-0.1,1.5-0.2c7.1-2.3,13.9-5.5,20.2-9.7c1.4-0.9,2.7-1.9,4.1-2.9c17.3-13,28.4-31.9,31.4-53.3c3-21.3-2.5-42.6-15.5-59.8
		C190.9,77.2,187.7,76.8,185.5,78.4z"/>
	<path style="fill:#232323;" d="M180.8,55.5c0.9,0.7,2,1,3.2,1c0.3,0,0.6,0,0.9-0.1c1.4-0.2,2.7-1,3.5-2.2c0.9-1.2,1.2-2.6,1-4.1
		c-0.2-1.4-1-2.7-2.2-3.6c-2.4-1.8-5.9-1.2-7.6,1.2c-0.9,1.2-1.2,2.6-1,4.1C178.8,53.4,179.6,54.7,180.8,55.5z"/>
	<path style="fill:#232323;" d="M180.8,200.5c-2.4,1.8-3,5.2-1.2,7.6c0,0,0,0,0,0c1.1,1.5,2.7,2.2,4.4,2.2c1.1,0,2.2-0.3,3.2-1
		c1.2-0.9,1.9-2.1,2.2-3.6c0.2-1.4-0.1-2.9-1-4.1C186.6,199.3,183.2,198.7,180.8,200.5z"/>
	<path style="fill:#232323;" d="M168.5,69.9c1.1,0.7,2.1,1.5,3.1,2.3c0.9,0.7,2,1.1,3.1,1.1c1.5,0,3-0.7,4-1.9
		c1.7-2.2,1.3-5.3-0.9-7c-1.2-0.9-2.4-1.8-3.6-2.6c-2.3-1.6-5.4-1-7,1.3C165.6,65.2,166.2,68.3,168.5,69.9z"/>
	<rect x="167.5" y="108.5" style="fill:#232323;" width="10" height="41.9"/>
	<path style="fill:#232323;" d="M159.2,121c0-8.6-7.6-15.6-17-15.6h-11.5c-2.8,0-5,2.2-5,5v39.8h10v-13.7h6.5
		C151.6,136.6,159.2,129.6,159.2,121z M142.2,126.5h-6.5v-11h6.5c3.8,0,7,2.5,7,5.5C149.2,124,146,126.5,142.2,126.5z"/>
	<path style="fill:#232323;" d="M128.9,47.2c-2.7,0-5,2.2-5,5c0,2.8,2.2,5.1,5,5.1c6.6,0.1,13.1,1.1,19.4,2.9c0.5,0.1,1,0.2,1.4,0.2
		c2.2,0,4.2-1.4,4.8-3.6c0.8-2.7-0.7-5.5-3.4-6.2C143.9,48.4,136.5,47.3,128.9,47.2C129,47.2,128.9,47.2,128.9,47.2z"/>
	<path style="fill:#232323;" d="M128,38.4c3,0,5.5-2.5,5.5-5.5c0-3-2.5-5.5-5.5-5.5s-5.5,2.4-5.5,5.5C122.5,35.9,125,38.4,128,38.4z
		"/>
	<path style="fill:#232323;" d="M128,217.6c-3,0-5.5,2.5-5.5,5.5c0,3,2.5,5.5,5.5,5.5s5.5-2.4,5.5-5.5
		C133.5,220.1,131,217.6,128,217.6z"/>
	<path style="fill:#232323;" d="M127.1,208.8c2.7,0,5-2.2,5-5c0-2.8-2.2-5.1-5-5.1c-6.6-0.1-13.1-1.1-19.4-2.9
		c-2.7-0.8-5.5,0.7-6.2,3.4c-0.8,2.7,0.7,5.5,3.4,6.2C112.1,207.6,119.5,208.7,127.1,208.8C127,208.8,127.1,208.8,127.1,208.8z"/>
	<path style="fill:#232323;" d="M96.7,104.4c-2,0-3.9,1.2-4.6,3.1l-16.2,39.7l9.3,3.8l2.8-6.9h17.5l2.8,6.9l9.3-3.8l-16.2-39.7
		C100.5,105.6,98.7,104.4,96.7,104.4z M92,134.1l4.6-11.4l4.6,11.4H92z"/>
	<path style="fill:#232323;" d="M87.5,186.1c-1.1-0.7-2.1-1.5-3.1-2.3c-2.2-1.7-5.3-1.3-7,0.9c-1.7,2.2-1.3,5.3,0.9,7
		c1.2,0.9,2.4,1.8,3.6,2.6c0.9,0.6,1.9,0.9,2.9,0.9c1.6,0,3.2-0.8,4.1-2.2C90.4,190.8,89.8,187.7,87.5,186.1z"/>
	<path style="fill:#232323;" d="M70.5,177.6c2.2-1.7,2.7-4.8,1-7c-11.4-15.1-16.2-33.7-13.6-52.4c2.6-18.7,12.4-35.3,27.5-46.7
		c1.2-0.9,2.4-1.7,3.6-2.5c5.5-3.6,11.5-6.5,17.7-8.5c2.6-0.8,4.1-3.7,3.3-6.3c-0.8-2.7-3.7-4.1-6.3-3.3c-7.1,2.3-13.9,5.5-20.2,9.7
		c-1.4,0.9-2.8,1.9-4.1,2.9c-17.3,13-28.4,31.9-31.4,53.3c-3,21.3,2.5,42.6,15.5,59.8c1,1.3,2.5,2,4,2
		C68.5,178.6,69.6,178.2,70.5,177.6z"/>
	<path style="fill:#232323;" d="M71.2,56.5c0.3,0,0.6,0.1,0.9,0.1c1.1,0,2.2-0.4,3.2-1c1.2-0.9,2-2.1,2.2-3.6c0.2-1.4-0.1-2.9-1-4.1
		c-1.8-2.4-5.2-3-7.6-1.2c-1.2,0.9-2,2.1-2.2,3.6c-0.2,1.4,0.1,2.9,1,4C68.5,55.5,69.7,56.3,71.2,56.5z"/>
	<path style="fill:#232323;" d="M75.2,200.5c-2.4-1.8-5.8-1.2-7.6,1.2c-0.9,1.2-1.2,2.6-1,4.1c0.2,1.4,1,2.7,2.2,3.6
		c1,0.7,2.1,1,3.2,1c1.7,0,3.4-0.8,4.4-2.2C78.2,205.7,77.7,202.3,75.2,200.5z"/>
	<path style="fill:#232323;" d="M39.1,93.4L39.1,93.4c-2.9-0.9-5.9,0.7-6.9,3.5c-0.9,2.9,0.6,5.9,3.5,6.9c0.6,0.2,1.1,0.3,1.7,0.3
		c2.3,0,4.4-1.5,5.2-3.8C43.5,97.5,42,94.4,39.1,93.4z"/>
	<path style="fill:#232323;" d="M35.7,152.2C35.7,152.2,35.7,152.2,35.7,152.2c-2.9,0.9-4.4,4-3.5,6.9c0.7,2.3,2.9,3.8,5.2,3.8
		c0.6,0,1.1-0.1,1.7-0.3c2.9-0.9,4.4-4,3.5-6.9C41.7,152.8,38.6,151.3,35.7,152.2z"/>
</g>
</svg>
