<?xml version="1.0" encoding="utf-8"?>
<!-- Generator: Adobe Illustrator 28.0.0, SVG Export Plug-In . SVG Version: 6.00 Build 0)  -->
<svg version="1.1" id="Layer_1" xmlns="http://www.w3.org/2000/svg" xmlns:xlink="http://www.w3.org/1999/xlink" x="0px" y="0px"
	 viewBox="0 0 256 256" style="enable-background:new 0 0 256 256;" xml:space="preserve">
<g>
	<path style="fill:none;" d="M176.8,178.2c1.5,0.1,3,0,4.5-0.2c6.9-0.7,13.4-3.3,18.8-7.8c6.1-5.2,9.5-12.9,9.2-20.9
		c0.3-6.2-1.9-12.3-6.1-16.9c-4.3-4.4-10.1-7.2-16.3-7.6v-0.3c5.1-1.5,9.6-4.7,12.8-9c3.2-4.3,4.8-9.5,4.7-14.8
		c0.2-6.4-2.6-12.6-7.6-16.6c-5.9-4.5-13.2-6.8-20.6-6.4h-28.6v66.5v33.9H176.8z M159.6,88.4l13.3-0.1c12.8,0,19.2,4.9,19.2,14.6
		c0.3,5-1.8,9.9-5.5,13.1c-4.3,3.3-9.7,5-15.1,4.8h-12V88.4z M159.6,156.3v-24.9l13.3,0c16.2,0,24.2,5.9,24.2,17.8
		c0.2,5.1-1.8,10.1-5.7,13.4c-4.6,3.5-10.2,5.2-15.9,4.9h-4.7h-11.2V156.3z"/>
	<path style="fill:none;" d="M89.9,166.4h-0.3c-0.4-3-1.1-6-2-8.9L59.7,77.8H46.6L83,178.2h13.1l23-62.4l14-38l-12.6-0.2l-10.4,29.2
		l-18,50.5C91.1,160.2,90.3,163.3,89.9,166.4z"/>
	<path style="fill:#004E8C;" d="M186.6,116c3.8-3.3,5.8-8.1,5.5-13.1c0-9.7-6.4-14.6-19.2-14.6l-13.3,0.1v32.4h12
		C177,121.1,182.3,119.4,186.6,116z"/>
	<path style="fill:#004E8C;" d="M175.5,167.5c5.7,0.3,11.4-1.4,15.9-4.9c3.8-3.4,5.9-8.3,5.7-13.4c0-11.8-8.1-17.8-24.2-17.8
		l-13.3,0v24.9l11.2,11.2H175.5z"/>
	<path style="fill:#004E8C;" d="M128,0.5c-36.1,0-68.6,15-91.8,39.1c1.1-1.1,2.3-2.2,3.5-3.2l70.5,70.5l10.4-29.2l12.6,0.2l-14,38
		l28.5,28.5V77.8h28.6c7.4-0.4,14.7,1.9,20.6,6.4c5,4,7.8,10.2,7.6,16.6c0.1,5.3-1.6,10.5-4.7,14.8c-3.2,4.3-7.7,7.4-12.8,9v0.3
		c6.2,0.5,11.9,3.2,16.3,7.6c4.2,4.6,6.4,10.7,6.1,16.9c0.3,8-3.1,15.7-9.2,20.9c-5.4,4.5-11.9,7.1-18.8,7.8l38.3,38.3
		c-1.1,1.3-2.3,2.5-3.5,3.7c24.2-23.2,39.3-55.9,39.3-92C255.5,57.6,198.4,0.5,128,0.5z"/>
	<polygon style="fill:#004E8C;" points="159.6,156.3 159.6,167.5 170.8,167.5 	"/>
	<polygon style="opacity:0.1;fill:#FFFFFF;enable-background:new    ;" points="159.6,156.3 159.6,167.5 170.8,167.5 	"/>
	<path style="fill:#004E8C;" d="M181.3,178c-1.5,0.1-3,0.2-4.5,0.2h-29.2v-33.9l-28.5-28.5l-23,62.4H83L46.6,77.8h13.1l27.9,79.7
		c1,2.9,1.6,5.9,2,8.9h0.3c0.4-3.1,1.2-6.1,2.2-9.1l18-50.5L39.6,36.4c-1.2,1.1-2.3,2.2-3.5,3.2C14.1,62.5,0.5,93.7,0.5,128
		c0,70.4,57.1,127.5,127.5,127.5c34.2,0,65.3-13.5,88.2-35.5c1.2-1.2,2.3-2.4,3.5-3.7L181.3,178z"/>
	<path style="opacity:0.1;fill:#FFFFFF;enable-background:new    ;" d="M181.3,178c-1.5,0.1-3,0.2-4.5,0.2h-29.2v-33.9l-28.5-28.5
		l-23,62.4H83L46.6,77.8h13.1l27.9,79.7c1,2.9,1.6,5.9,2,8.9h0.3c0.4-3.1,1.2-6.1,2.2-9.1l18-50.5L39.6,36.4
		c-1.2,1.1-2.3,2.2-3.5,3.2C14.1,62.5,0.5,93.7,0.5,128c0,70.4,57.1,127.5,127.5,127.5c34.2,0,65.3-13.5,88.2-35.5
		c1.2-1.2,2.3-2.4,3.5-3.7L181.3,178z"/>
</g>
</svg>
